<?xml version="1.0" standalone="no"?>
<!DOCTYPE svg PUBLIC "-//W3C//DTD SVG 20010904//EN"
 "http://www.w3.org/TR/2001/REC-SVG-20010904/DTD/svg10.dtd">
<svg version="1.0" xmlns="http://www.w3.org/2000/svg"
 width="489.000000pt" height="511.000000pt" viewBox="0 0 489.000000 511.000000"
 preserveAspectRatio="xMidYMid meet">

<g transform="translate(0.000000,511.000000) scale(0.100000,-0.100000)"
fill="#000000" stroke="none">
<path d="M2372 4399 c-25 -17 -30 -24 -20 -31 10 -7 9 -11 -6 -21 -56 -36 -67
-50 -62 -73 5 -18 2 -24 -10 -24 -13 0 -14 -3 -5 -13 11 -14 5 -27 -13 -27 -6
0 -4 5 4 10 13 8 13 10 -2 10 -9 0 -18 -5 -20 -12 -6 -17 -28 0 -28 22 0 10 7
25 15 33 22 22 5 29 -24 10 -41 -27 -49 -34 -147 -127 -102 -97 -159 -177
-199 -274 -40 -98 -85 -309 -87 -408 0 -38 -3 -44 -22 -44 -12 0 -27 -5 -34
-12 -8 -8 -15 -8 -27 2 -22 18 -30 5 -17 -25 16 -34 15 -45 -3 -45 -10 0 -15
10 -15 29 0 38 -16 48 -31 19 -11 -21 -12 -21 -25 -3 -16 22 -19 20 -28 -17
-4 -18 -2 -28 5 -28 6 0 9 -8 7 -17 -2 -10 -10 -18 -18 -18 -11 0 -15 12 -15
45 0 42 -2 45 -28 48 -18 2 -29 -2 -33 -13 -6 -14 -8 -14 -25 1 -15 13 -19 14
-19 3 0 -11 -2 -11 -9 -1 -4 8 -30 14 -62 15 l-54 2 3 -32 c4 -34 -11 -45 -22
-17 -6 16 16 68 34 79 5 3 10 10 10 16 0 15 -22 10 -36 -8 -15 -22 -24 -14
-33 29 -5 22 -13 34 -26 36 -16 3 -18 1 -7 -9 16 -17 16 -52 0 -47 -7 3 -15
15 -19 29 -4 13 -7 18 -8 12 -1 -9 -8 -10 -25 -3 -28 10 -66 3 -66 -14 0 -6
-7 -2 -15 8 -8 11 -15 14 -15 8 0 -15 -36 -52 -50 -52 -6 0 -13 14 -16 30 -7
30 -34 43 -34 15 0 -18 -30 -20 -31 -2 -1 6 0 22 0 33 2 19 -3 21 -36 20 -24
-1 -45 -8 -56 -21 -15 -15 -20 -17 -26 -6 -13 20 -60 5 -71 -23 -8 -23 -29
-36 -56 -36 -28 0 -13 27 26 49 33 18 40 27 34 43 -5 17 -2 19 23 16 15 -3 22
-3 15 -1 -7 3 -10 9 -7 14 11 17 -27 9 -52 -11 -27 -21 -87 -27 -98 -10 -3 6
-2 10 3 10 6 0 5 10 -1 25 -14 29 -20 31 -37 10 -7 -8 -24 -15 -37 -15 -20 0
-24 -4 -21 -18 6 -21 -22 -27 -34 -8 -12 18 -9 24 15 28 41 6 26 33 -20 36
-44 3 -53 -4 -31 -26 9 -9 8 -12 -5 -12 -9 0 -17 5 -17 10 0 6 -9 10 -21 10
-11 0 -17 -4 -14 -10 3 -5 -1 -10 -9 -10 -10 0 -13 6 -10 15 4 8 13 15 21 15
11 0 13 3 5 13 -15 17 -122 10 -122 -9 0 -8 -2 -14 -5 -14 -8 0 -89 43 -117
62 -36 25 -50 23 -43 -5 5 -19 -1 -27 -34 -45 -22 -12 -42 -28 -45 -35 -3 -6
-3 4 0 24 5 29 2 38 -13 44 -17 7 -17 8 2 15 18 8 18 9 -5 9 -39 2 -54 15 -35
31 13 11 13 15 3 21 -7 5 -16 9 -20 9 -5 0 -8 -841 -8 -1870 l0 -1870 645 0
645 0 -6 33 c-4 17 -17 48 -29 68 -13 19 -30 62 -39 95 -8 32 -18 69 -22 82
-5 17 1 30 27 55 19 18 41 43 49 56 26 38 182 47 262 16 21 -8 23 -14 37 -105
7 -41 19 -106 26 -145 8 -38 17 -89 20 -112 l7 -43 1634 0 1634 0 0 1700 c0
1161 -4 1700 -11 1700 -6 0 -7 5 -4 11 10 15 13 59 4 54 -4 -3 -10 -1 -14 5
-3 5 -13 10 -22 10 -9 0 -14 -3 -10 -6 3 -4 -1 -13 -9 -21 -13 -14 -13 -17 1
-32 8 -10 15 -21 15 -24 0 -13 -49 -7 -85 10 -27 13 -34 21 -29 36 5 17 3 19
-22 13 -16 -4 -30 -12 -32 -17 -2 -5 -10 -9 -18 -9 -8 0 -14 -4 -14 -8 0 -5
-19 -8 -42 -8 -43 1 -43 1 -40 -33 3 -32 2 -33 -25 -28 -54 10 -133 42 -133
55 0 6 -4 12 -9 12 -5 0 -11 9 -14 20 -3 11 -13 20 -22 20 -11 0 -15 -5 -11
-15 3 -9 -1 -18 -9 -21 -8 -4 -15 -16 -15 -29 0 -19 -4 -21 -27 -17 -16 3 -31
9 -34 15 -4 5 -17 6 -30 1 -13 -4 -27 -7 -31 -6 -5 1 -8 -5 -8 -13 0 -8 -9
-19 -20 -25 -16 -9 -18 -8 -14 5 4 8 1 15 -5 15 -6 0 -11 -6 -11 -12 0 -9 -3
-10 -8 -2 -10 15 -52 24 -52 11 0 -6 8 -19 18 -30 16 -19 16 -20 -9 -14 -19 5
-31 1 -44 -13 -19 -21 -65 -28 -65 -10 0 5 11 12 25 16 l25 6 -26 20 c-19 15
-22 23 -13 29 8 5 -1 10 -25 15 -23 4 -41 3 -45 -4 -3 -6 -20 -12 -36 -14 -25
-2 -29 -7 -27 -27 3 -18 0 -22 -11 -18 -20 7 -47 -23 -48 -54 -1 -21 -2 -20
-10 8 -10 35 -29 54 -29 29 0 -9 -4 -16 -10 -16 -5 0 -10 5 -10 10 0 6 -7 27
-16 48 -14 33 -17 35 -24 17 -4 -11 -4 -32 1 -47 l8 -28 -52 1 c-50 1 -51 1
-19 10 24 7 32 14 28 25 -3 9 -6 18 -6 20 0 2 -7 4 -15 4 -8 0 -15 5 -15 10 0
13 -37 13 -45 1 -3 -5 4 -13 15 -16 30 -9 7 -35 -31 -35 -17 0 -34 -8 -43 -22
-13 -18 -16 -19 -16 -5 0 10 -8 17 -18 17 -10 0 -23 5 -28 10 -8 8 -15 6 -24
-5 -12 -14 -11 -18 1 -26 11 -7 9 -9 -8 -9 -15 0 -21 5 -17 14 3 9 -3 17 -15
21 -24 7 -41 -1 -41 -20 0 -10 -9 -9 -40 6 -21 10 -45 19 -53 19 -8 0 -20 7
-27 15 -7 8 -19 15 -26 15 -20 0 -17 -27 4 -35 15 -6 14 -8 -7 -19 -19 -11
-21 -14 -7 -19 18 -7 21 -32 5 -42 -6 -4 -13 2 -16 14 -3 11 -9 19 -13 16 -12
-7 -20 38 -9 51 6 8 4 13 -9 16 -14 4 -18 0 -18 -16 1 -12 -5 -21 -14 -21 -10
0 -15 11 -16 35 0 19 -8 62 -17 95 -9 33 -25 114 -36 180 -69 393 -118 514
-279 677 -108 109 -163 137 -290 144 -78 5 -91 3 -120 -17z m123 -19 c3 -5 -1
-10 -9 -10 -9 0 -16 5 -16 10 0 6 4 10 9 10 6 0 13 -4 16 -10z m-5 -165 c0 -8
9 -15 19 -15 22 0 137 -103 156 -140 7 -14 16 -45 20 -70 4 -25 18 -76 31
-114 14 -38 23 -71 20 -73 -2 -3 -29 -5 -60 -6 -55 -1 -68 -10 -71 -50 0 -5
-8 -14 -17 -21 -10 -7 -22 -25 -28 -41 -14 -37 0 -53 34 -37 32 14 48 -5 21
-24 -33 -24 3 -50 112 -80 26 -7 46 -55 46 -112 1 -52 -6 -78 -32 -122 -5 -8
-17 -37 -28 -65 -15 -40 -27 -55 -61 -73 -23 -13 -42 -30 -42 -38 0 -11 -8
-14 -24 -12 -15 2 -34 -6 -48 -19 -13 -11 -45 -28 -71 -37 -45 -15 -53 -15
-135 5 -48 12 -89 24 -92 28 -3 3 -18 7 -35 9 -16 2 -44 14 -62 28 -17 13 -35
24 -39 24 -4 0 -16 7 -26 17 -30 27 -33 6 -6 -49 15 -29 27 -69 29 -88 2 -22
14 -48 34 -70 17 -19 42 -52 56 -73 l24 -38 65 5 c36 3 85 12 110 21 48 17 75
13 67 -9 -3 -8 1 -20 9 -26 18 -16 18 -39 -2 -80 -17 -33 -33 -170 -20 -170 4
0 15 4 24 9 20 11 58 -12 48 -28 -4 -5 -1 -13 4 -16 6 -4 10 -19 8 -33 -3 -23
0 -27 19 -24 31 4 63 -15 63 -37 0 -11 7 -21 15 -25 31 -12 15 -24 -67 -55
-16 -6 -28 -15 -28 -21 0 -5 -12 -10 -27 -10 -45 0 -72 -11 -78 -31 -9 -27
-19 -24 -32 11 l-11 30 -89 -4 c-48 -3 -105 0 -126 5 -25 7 -43 7 -50 0 -8 -6
-20 -2 -38 13 -21 18 -26 29 -22 52 3 16 10 34 15 41 5 7 7 17 3 23 -4 6 -3
24 0 41 6 24 9 28 21 18 11 -9 14 -7 14 15 0 16 6 26 14 26 12 0 13 7 5 32 -5
17 -14 35 -20 39 -8 5 -5 11 10 20 20 13 30 59 13 59 -4 0 -8 8 -9 18 -1 9 -6
38 -11 65 -10 49 1 65 18 25 6 -17 9 -18 9 -6 1 9 -3 19 -8 22 -5 3 -16 29
-25 57 -9 27 -30 79 -46 115 -19 41 -30 81 -30 110 0 25 -5 54 -11 65 -5 11
-18 57 -28 102 -15 70 -21 82 -39 85 -14 2 -24 13 -28 30 -3 15 -10 43 -15 62
-14 55 -11 101 12 159 12 32 18 65 14 80 -4 20 -3 22 5 11 5 -8 10 -26 10 -40
0 -14 8 -33 19 -42 18 -15 20 -12 45 73 33 108 95 229 148 287 32 35 37 45 28
62 -9 16 -15 18 -36 10 -14 -6 -31 -10 -37 -10 -17 1 24 30 42 30 20 1 71 45
72 62 0 10 2 10 6 1 6 -15 79 -17 88 -3 3 6 15 10 27 10 11 0 34 6 51 14 28
13 54 21 80 25 4 0 7 -6 7 -14z m253 -474 c25 -20 21 -40 -10 -53 -36 -14 -75
-11 -90 9 -7 9 -19 12 -32 8 -27 -8 -26 -1 2 27 26 27 103 32 130 9z m-27
-126 c-3 -8 -12 -15 -21 -15 -14 0 -13 3 2 26 17 26 30 18 19 -11z m-2536 11
c0 -3 -4 -8 -10 -11 -5 -3 -10 -1 -10 4 0 6 5 11 10 11 6 0 10 -2 10 -4z m220
-36 c0 -5 -4 -10 -10 -10 -5 0 -10 5 -10 10 0 6 5 10 10 10 6 0 10 -4 10 -10z
m80 -30 c0 -5 -4 -10 -10 -10 -5 0 -10 5 -10 10 0 6 5 10 10 10 6 0 10 -4 10
-10z m-17 -57 c-7 -2 -19 -2 -25 0 -7 3 -2 5 12 5 14 0 19 -2 13 -5z m333 -80
c-10 -10 -19 5 -10 18 6 11 8 11 12 0 2 -7 1 -15 -2 -18z m414 7 c0 -27 -24
-35 -60 -20 -46 19 -38 40 15 40 39 0 45 -3 45 -20z m540 -29 c0 -10 -7 -24
-15 -31 -13 -10 -15 -9 -15 12 0 14 3 28 7 31 12 13 23 7 23 -12z m-366 -37
c9 -22 8 -24 -9 -18 -8 4 -15 12 -15 20 0 19 16 18 24 -2z m2882 -9 c3 -14 11
-25 18 -25 6 -1 -2 -7 -19 -14 -36 -16 -65 -5 -65 25 0 11 4 18 9 14 6 -3 16
1 23 9 19 22 27 19 34 -9z m-3066 -5 c0 -13 -7 -20 -20 -20 -25 0 -25 9 -2 26
22 17 22 17 22 -6z m3180 10 c0 -5 -9 -10 -20 -10 -11 0 -20 5 -20 10 0 6 9
10 20 10 11 0 20 -4 20 -10z m475 0 c4 -6 -5 -10 -20 -10 -15 0 -24 4 -20 10
3 6 12 10 20 10 8 0 17 -4 20 -10z m-3250 -10 c3 -5 1 -10 -4 -10 -6 0 -11 5
-11 10 0 6 2 10 4 10 3 0 8 -4 11 -10z m3048 -5 c-3 -9 -8 -14 -10 -11 -3 3
-2 9 2 15 9 16 15 13 8 -4z m-203 -30 c0 -8 -4 -15 -10 -15 -5 0 -10 7 -10 15
0 8 5 15 10 15 6 0 10 -7 10 -15z m-1157 -55 c8 -29 -5 -31 -26 -4 -17 23 -17
24 1 24 11 0 22 -9 25 -20z m303 -7 c-10 -10 -19 5 -10 18 6 11 8 11 12 0 2
-7 1 -15 -2 -18z m284 17 c0 -5 -4 -10 -10 -10 -5 0 -10 5 -10 10 0 6 5 10 10
10 6 0 10 -4 10 -10z m87 4 c-3 -3 -12 -4 -19 -1 -8 3 -5 6 6 6 11 1 17 -2 13
-5z m-557 -34 c0 -5 -7 -10 -16 -10 -8 0 -12 5 -9 10 3 6 10 10 16 10 5 0 9
-4 9 -10z m-1673 -62 c-3 -8 -6 -5 -6 6 -1 11 2 17 5 13 3 -3 4 -12 1 -19z
m253 -19 c0 -6 -4 -7 -10 -4 -5 3 -10 11 -10 16 0 6 5 7 10 4 6 -3 10 -11 10
-16z m-304 -66 c-2 -3 -9 -2 -15 1 -7 5 -6 16 2 34 l12 27 3 -29 c2 -15 1 -30
-2 -33z m-23 -25 c8 -28 6 -29 -17 -13 -10 8 -15 18 -11 24 10 17 22 13 28
-11z m43 -74 c13 -3 24 -13 24 -21 0 -10 -6 -13 -16 -9 -9 3 -20 6 -25 6 -5 0
-9 6 -9 14 0 8 -5 16 -12 18 -7 3 -8 9 -3 19 8 12 10 11 13 -3 2 -10 14 -21
28 -24z m115 -74 c6 0 8 -4 4 -10 -9 -14 -35 0 -35 19 0 27 15 36 18 12 2 -12
8 -21 13 -21z m104 -103 c4 1 11 6 15 12 3 7 14 9 24 5 20 -8 13 -42 -12 -61
-24 -20 -29 -16 -24 18 l5 31 -32 -17 c-39 -20 -60 -16 -37 7 9 9 16 23 16 31
0 27 14 27 25 0 6 -16 15 -27 20 -26z m78 -124 c-15 -25 -43 -31 -43 -9 0 8
10 45 22 82 l22 69 7 -60 c4 -43 2 -66 -8 -82z m-604 70 c8 -15 4 -18 -23 -19
-64 -1 -207 -90 -176 -109 6 -4 18 -1 26 6 8 6 17 9 21 5 3 -3 0 -6 -7 -6 -7
0 -10 -3 -7 -7 8 -7 -11 -33 -23 -33 -5 0 -10 8 -12 18 -3 14 -8 11 -23 -13
-11 -16 -30 -41 -43 -55 -22 -23 -22 -21 4 28 41 76 79 119 138 152 28 17 47
30 41 31 -8 1 25 10 67 18 4 0 11 -7 17 -16z m136 -63 c3 -5 1 -10 -4 -10 -6
0 -11 5 -11 10 0 6 2 10 4 10 3 0 8 -4 11 -10z m-105 -56 c0 -8 -4 -12 -10 -9
-5 3 -10 10 -10 16 0 5 5 9 10 9 6 0 10 -7 10 -16z m47 -146 c-3 -7 -5 -2 -5
12 0 14 2 19 5 13 2 -7 2 -19 0 -25z m201 -61 c6 3 12 -3 12 -11 0 -9 -8 -19
-17 -22 -10 -3 -26 -10 -35 -15 -10 -5 -20 -9 -23 -9 -8 0 -6 27 5 56 10 24
12 25 28 12 9 -9 23 -13 30 -11z m32 13 c0 -5 -2 -10 -4 -10 -3 0 -8 5 -11 10
-3 6 -1 10 4 10 6 0 11 -4 11 -10z m-570 -25 c0 -8 -4 -17 -10 -20 -6 -4 -10
5 -10 20 0 15 4 24 10 20 6 -3 10 -12 10 -20z m317 3 c-3 -8 -6 -5 -6 6 -1 11
2 17 5 13 3 -3 4 -12 1 -19z m1180 -85 c-3 -10 -5 -4 -5 12 0 17 2 24 5 18 2
-7 2 -21 0 -30z m-1031 0 c-10 -10 -19 5 -10 18 6 11 8 11 12 0 2 -7 1 -15 -2
-18z m556 -22 c13 7 23 7 27 1 3 -5 16 -12 27 -16 53 -16 43 -176 -10 -176
-12 0 -29 -9 -39 -20 -9 -11 -24 -20 -32 -20 -8 0 -15 -5 -15 -11 0 -5 8 -9
18 -8 61 6 73 0 94 -48 20 -45 20 -47 3 -77 -10 -17 -25 -39 -34 -49 -14 -17
-16 -17 -27 -2 -13 18 -44 10 -44 -12 0 -10 6 -12 20 -8 26 8 26 -9 -1 -46
-30 -42 -51 -38 -48 9 4 53 -4 60 -67 60 -54 -1 -57 -2 -70 -33 -10 -25 -11
-52 -3 -126 5 -51 13 -95 18 -98 13 -10 20 -52 11 -70 -10 -18 -50 -104 -50
-107 0 -1 9 0 20 3 25 7 38 -22 22 -48 -17 -27 -15 -39 10 -60 11 -11 18 -22
15 -26 -10 -9 -69 -8 -91 2 -15 6 -17 5 -11 -4 6 -10 0 -12 -24 -6 -18 4 -31
3 -31 -3 0 -11 -95 -52 -121 -52 -15 0 -19 7 -19 33 0 18 -5 38 -11 44 -9 9
-4 18 17 37 26 22 27 25 12 31 -22 9 -24 25 -4 25 8 0 18 5 22 11 12 20 21
143 13 166 -9 23 11 86 31 98 5 3 10 13 10 21 0 11 -4 12 -19 5 -10 -6 -21 -7
-25 -4 -3 3 -6 2 -6 -4 0 -16 -49 -34 -76 -27 -31 8 -30 13 4 41 l27 22 -38 1
c-34 0 -37 2 -32 23 4 15 1 28 -10 37 -14 12 -14 15 0 37 13 19 14 27 4 39 -6
8 -9 17 -6 21 4 3 2 14 -4 25 -6 11 -10 52 -9 91 1 40 2 84 1 99 0 19 8 33 25
45 14 10 34 26 45 36 24 21 29 21 44 0 10 -14 18 -15 55 -5 42 10 43 10 53
-19 10 -24 17 -29 46 -29 51 0 121 -50 146 -102 26 -57 74 -103 60 -58 -4 11
-2 20 4 20 6 0 11 11 11 25 0 14 -4 25 -8 25 -5 0 -14 12 -21 26 -13 29 -6 68
10 58 6 -3 13 3 16 15 7 28 17 26 49 -6 l26 -28 -7 25 c-15 52 -17 90 -6 90 7
0 10 4 6 10 -3 5 -12 7 -20 3 -9 -3 -15 1 -15 11 0 9 -5 16 -11 16 -5 0 -7 5
-4 10 3 6 1 10 -4 10 -6 0 -11 7 -11 15 0 12 5 10 20 -5 17 -17 24 -18 42 -9z
m222 -14 c12 -20 -5 -37 -36 -37 -21 0 -24 30 -6 48 15 15 28 11 42 -11z m226
-7 c0 -5 -4 -10 -10 -10 -5 0 -10 5 -10 10 0 6 5 10 10 10 6 0 10 -4 10 -10z
m-37 -16 c3 -3 1 -17 -4 -31 -5 -14 -7 -35 -3 -46 6 -19 7 -19 28 6 19 21 24
23 39 12 21 -15 14 -62 -12 -82 -11 -8 -12 -12 -3 -13 19 0 14 -30 -5 -30 -17
-1 -17 -1 0 -11 14 -8 23 -7 38 7 11 10 19 12 19 6 0 -7 -4 -12 -9 -12 -6 0
-7 -16 -4 -35 4 -25 2 -35 -7 -35 -9 0 -8 -5 3 -18 19 -21 22 -32 7 -32 -14 0
-50 -37 -42 -44 3 -3 -2 -6 -10 -6 -26 0 -29 -27 -5 -34 33 -9 83 -59 91 -92
9 -34 24 -54 40 -54 6 0 6 4 -2 9 -10 6 -14 31 -13 86 l1 77 -26 -5 c-17 -3
-28 1 -35 14 -7 14 -6 19 3 19 8 0 21 9 31 20 23 27 41 25 65 -5 11 -14 25
-25 31 -25 6 0 11 -5 11 -11 0 -5 6 -7 13 -3 6 4 2 -4 -11 -18 -21 -23 -22
-27 -8 -41 22 -22 20 -47 -4 -47 -15 0 -20 -7 -20 -25 0 -14 -9 -34 -20 -45
-11 -11 -20 -30 -20 -42 0 -40 -12 -68 -27 -68 -13 0 -13 -3 -3 -15 10 -13 10
-19 -4 -34 -12 -13 -18 -44 -22 -117 -5 -95 -11 -190 -13 -207 -1 -5 -11 -5
-23 -2 -19 6 -21 5 -10 -6 16 -17 15 -29 -3 -54 -15 -19 -16 -19 -32 5 -10 14
-17 34 -16 45 2 12 0 15 -4 6 -4 -11 -9 -8 -20 10 -12 21 -14 21 -10 3 4 -17
0 -20 -24 -16 -33 5 -36 -2 -13 -25 13 -14 17 -14 25 -2 7 12 9 11 9 -2 0 -9
11 -21 25 -27 17 -8 25 -20 25 -37 0 -14 -4 -25 -10 -25 -5 0 -10 9 -10 19 0
14 -5 18 -20 14 -15 -4 -20 0 -20 16 0 12 -4 20 -9 17 -21 -13 -39 8 -46 50
-3 24 -10 44 -15 44 -13 0 -28 90 -23 140 7 69 13 80 29 45 l13 -30 1 31 c0
23 -6 34 -25 44 -46 25 -61 66 -64 170 -2 87 0 100 27 153 16 31 25 57 20 57
-5 0 -6 5 -2 12 6 9 9 9 12 0 4 -14 42 -16 42 -2 0 6 -7 10 -15 10 -10 0 -15
10 -16 28 0 15 -3 21 -6 15 -2 -7 -11 -13 -18 -13 -15 0 -27 52 -14 61 6 3 6
17 -1 34 -6 16 -9 39 -6 51 4 13 2 26 -4 29 -5 3 -10 1 -10 -4 0 -6 -7 -11
-16 -11 -9 0 -14 7 -12 17 2 13 14 18 45 18 23 0 43 3 45 5 16 25 28 52 28 64
0 8 14 23 30 33 17 9 30 23 30 30 0 14 12 17 23 7z m-133 -80 c0 -58 -23 -55
-31 4 -5 36 -3 42 13 42 15 0 18 -8 18 -46z m-796 21 c3 -9 0 -15 -9 -15 -8 0
-15 7 -15 15 0 8 4 15 9 15 5 0 11 -7 15 -15z m-534 -105 c0 -5 -4 -10 -10
-10 -5 0 -10 5 -10 10 0 6 5 10 10 10 6 0 10 -4 10 -10z m1262 -60 c5 0 8 -10
6 -22 -2 -17 -11 -24 -30 -26 -24 -3 -28 0 -28 21 0 29 9 39 28 32 7 -3 18 -5
24 -5z m-784 -37 c-24 -49 -32 -63 -40 -63 -13 0 -9 24 8 48 14 20 41 32 32
15z m797 -63 c3 -5 -1 -10 -9 -10 -9 0 -16 5 -16 10 0 6 4 10 9 10 6 0 13 -4
16 -10z m525 -175 c0 -8 -4 -15 -10 -15 -5 0 -10 7 -10 15 0 8 5 15 10 15 6 0
10 -7 10 -15z m-543 -10 c2 -6 -3 -20 -11 -30 -14 -19 -16 -19 -32 -3 -15 14
-15 20 -4 33 14 17 41 17 47 0z m477 -102 c-8 -47 -31 -92 -48 -99 -8 -3 -11
-15 -8 -30 4 -23 2 -24 -24 -18 -41 10 -43 12 -37 34 3 11 16 23 29 26 19 5
22 11 18 32 -2 15 -1 32 3 37 8 10 65 54 71 55 2 0 0 -17 -4 -37z m-610 -20
c-4 -21 -13 -42 -20 -46 -8 -4 -14 -24 -14 -45 0 -65 -75 -119 -109 -79 -8 10
-7 31 3 78 22 102 25 105 91 116 17 3 32 7 34 9 14 14 21 -1 15 -33z m-534 9
c0 -10 -6 -26 -13 -36 -12 -16 -14 -16 -26 -2 -12 14 -11 19 4 36 22 25 35 25
35 2z m644 -168 c8 -21 -1 -34 -23 -34 -24 0 -30 8 -24 31 6 23 38 25 47 3z
m440 -29 c-4 -8 -1 -22 6 -30 12 -15 5 -55 -10 -55 -5 0 -25 -14 -44 -31 -37
-32 -56 -31 -56 2 0 26 43 69 70 69 16 0 20 6 20 30 0 17 4 30 10 30 5 0 7 -7
4 -15z m-662 -67 c-7 -7 -12 -8 -12 -2 0 6 3 14 7 17 3 4 9 5 12 2 2 -3 -1
-11 -7 -17z m-947 -38 c-3 -5 -14 -10 -23 -9 -14 0 -13 2 3 9 27 11 27 11 20
0z m2480 -196 c52 -15 115 -48 115 -61 0 -13 -82 -107 -134 -154 -27 -24 -61
-55 -76 -69 -53 -49 -82 -70 -96 -70 -9 0 -12 -4 -9 -10 3 -5 2 -10 -3 -10 -5
0 -25 -15 -44 -32 -19 -18 -52 -48 -73 -67 l-37 -34 7 -79 c8 -94 -4 -137 -44
-161 -30 -18 -82 -21 -116 -8 -11 5 -25 5 -31 0 -15 -12 -76 10 -71 25 4 13
46 23 108 25 51 1 109 18 109 32 0 12 -5 11 -73 -2 -46 -9 -60 -9 -73 2 -13
11 -17 11 -24 -2 -5 -9 -28 -22 -50 -29 -36 -12 -43 -12 -51 1 -16 25 -5 42
31 51 19 5 74 23 123 41 66 24 87 36 87 50 0 19 -1 19 -58 -19 -18 -12 -51
-25 -75 -29 -47 -7 -103 -30 -112 -46 -11 -17 -35 11 -35 42 0 19 5 29 14 29
22 0 189 88 204 107 17 23 15 36 -4 29 -13 -5 -15 -2 -11 15 4 16 2 19 -11 14
-15 -7 -52 -12 -194 -31 -28 -4 -48 -3 -48 3 0 17 45 50 85 63 22 7 79 27 126
46 74 28 95 42 150 99 35 36 90 91 123 123 32 31 77 76 99 100 39 40 44 43 82
37 22 -4 63 -13 90 -21z m-1142 2 c6 -16 -2 -28 -14 -20 -12 7 -11 34 0 34 5
0 11 -6 14 -14z m-53 -42 c0 -13 -4 -24 -9 -24 -13 0 -22 28 -10 35 5 4 6 11
3 17 -4 7 -2 8 4 4 7 -4 12 -18 12 -32z m-1327 -82 c-3 -13 -18 -29 -34 -38
-32 -16 -38 -38 -13 -48 21 -8 144 -33 207 -42 26 -3 50 -10 53 -15 3 -5 0 -9
-5 -9 -6 0 -11 -6 -11 -14 0 -9 17 -18 43 -24 95 -23 121 -38 128 -73 9 -42
-5 -79 -30 -79 -11 0 -22 -4 -25 -8 -3 -5 -45 -24 -93 -42 -48 -19 -101 -42
-118 -53 l-30 -18 80 6 c44 4 104 9 134 12 53 5 54 5 47 -20 -5 -22 -2 -26 20
-29 22 -3 23 -5 12 -20 -7 -10 -29 -19 -50 -20 -21 -2 -38 -4 -38 -5 0 -12 35
-40 40 -33 4 6 14 2 25 -10 l19 -21 -184 2 c-192 2 -302 -12 -365 -45 -59 -31
-61 -27 -45 104 6 41 15 127 20 190 15 162 44 335 55 336 6 0 17 3 25 6 21 7
135 35 137 33 1 0 0 -11 -4 -23z m1975 -97 c17 -37 15 -47 -10 -43 -23 3 -34
28 -24 54 8 21 21 17 34 -11z"/>
<path d="M2310 3860 c0 -10 102 -52 108 -45 3 3 -1 13 -10 21 -17 17 -98 37
-98 24z"/>
<path d="M2193 3772 c-18 -9 -33 -21 -33 -28 0 -19 41 -24 64 -8 19 13 19 14
2 14 -15 0 -16 3 -6 14 6 8 21 17 33 19 19 4 19 4 -3 4 -14 0 -40 -7 -57 -15z"/>
<path d="M2258 3748 c7 -7 7 -19 2 -34 -6 -14 -6 -26 0 -29 19 -12 10 -26 -12
-20 -22 6 -22 6 -4 -9 22 -18 62 -21 71 -6 3 6 -1 10 -9 10 -9 0 -16 5 -16 10
0 6 4 10 8 10 5 0 14 11 20 25 6 14 16 25 22 25 5 0 12 -11 16 -25 3 -14 11
-25 16 -25 17 0 36 32 30 53 -4 14 -7 16 -13 5 -7 -10 -9 -10 -9 3 0 13 -13
16 -67 17 -48 1 -63 -2 -55 -10z"/>
<path d="M1942 3623 c-15 -26 -16 -53 -2 -53 14 0 22 24 18 52 l-3 23 -13 -22z"/>
<path d="M2370 3455 c8 -9 19 -27 25 -39 12 -23 51 -34 68 -17 6 6 18 11 27
11 8 0 22 5 30 10 13 9 13 11 1 19 -10 6 -28 4 -54 -6 -42 -17 -72 -9 -72 18
0 8 -9 15 -20 18 -17 3 -18 1 -5 -14z"/>
<path d="M2596 3375 c4 -8 8 -15 10 -15 2 0 4 7 4 15 0 8 -4 15 -10 15 -5 0
-7 -7 -4 -15z"/>
<path d="M2218 3345 c-15 -16 4 -25 50 -25 26 0 67 -9 91 -20 24 -11 49 -20
57 -20 7 0 15 -4 19 -9 3 -6 -8 -8 -28 -4 -28 4 -35 1 -45 -21 -8 -18 -8 -27
-1 -32 8 -4 7 -9 -2 -15 -8 -5 -9 -9 -4 -10 6 0 18 -2 28 -4 13 -2 17 1 13 11
-3 9 2 17 12 21 9 4 19 10 22 14 3 4 23 10 45 13 59 8 86 17 82 29 -1 5 -21
23 -43 39 -38 27 -48 29 -165 35 -68 3 -127 2 -131 -2z"/>
<path d="M1886 1406 c-23 -36 -1 -42 24 -6 16 23 18 30 7 30 -8 0 -22 -11 -31
-24z"/>
<path d="M1900 1371 c0 -5 5 -13 10 -16 6 -3 10 -2 10 4 0 5 -4 13 -10 16 -5
3 -10 2 -10 -4z"/>
<path d="M2546 2155 c-16 -12 -17 -19 -8 -37 l11 -23 0 24 c1 15 6 21 14 18 8
-3 20 -1 28 4 12 8 12 10 -1 19 -19 12 -21 12 -44 -5z"/>
<path d="M2496 2141 c-4 -7 -5 -15 -2 -18 9 -9 19 4 14 18 -4 11 -6 11 -12 0z"/>
<path d="M2440 2111 c-7 -15 -7 -21 0 -21 12 0 25 28 17 36 -3 3 -10 -4 -17
-15z"/>
<path d="M2587 1553 c-4 -3 -7 -11 -7 -17 0 -6 5 -5 12 2 6 6 9 14 7 17 -3 3
-9 2 -12 -2z"/>
<path d="M2506 1486 c3 -8 12 -12 19 -9 11 4 13 -9 11 -64 -2 -37 -2 -49 1
-25 2 23 8 42 12 42 4 0 6 -23 3 -51 -4 -39 -2 -50 7 -45 12 8 13 116 1 116
-4 0 -7 7 -7 15 0 8 4 15 9 15 4 0 8 5 8 10 0 6 -16 10 -35 10 -26 0 -33 -4
-29 -14z"/>
<path d="M2511 1394 c0 -11 3 -14 6 -6 3 7 2 16 -1 19 -3 4 -6 -2 -5 -13z"/>
<path d="M1010 951 c0 -6 5 -13 11 -17 7 -4 9 -22 6 -46 l-5 -40 85 7 c63 6
84 5 79 -4 -4 -6 -14 -11 -22 -11 -19 0 -140 -55 -147 -67 -3 -5 6 -8 22 -5
16 2 32 -1 35 -7 12 -18 28 -12 21 8 -5 16 1 20 39 25 25 4 73 4 108 0 62 -7
63 -7 33 -20 -16 -7 -43 -14 -60 -15 -27 -1 -26 -2 10 -9 22 -5 86 -12 141
-15 95 -7 103 -6 112 12 6 10 8 23 4 29 -6 8 -78 30 -212 64 -51 14 -125 50
-187 92 -42 28 -73 36 -73 19z"/>
<path d="M1133 753 c9 -2 23 -2 30 0 6 3 -1 5 -18 5 -16 0 -22 -2 -12 -5z"/>
<path d="M1035 710 c-3 -6 3 -14 14 -18 17 -6 18 -9 5 -27 -12 -17 -18 -18
-44 -8 -34 13 -41 0 -10 -17 11 -6 18 -15 15 -21 -12 -18 94 -13 138 7 21 9
25 14 12 13 -11 -1 -33 0 -50 0 l-30 2 25 10 c20 8 22 12 10 19 -36 22 91 41
132 19 17 -9 19 -8 16 8 -3 16 -16 18 -115 21 -68 1 -114 -2 -118 -8z"/>
<path d="M937 693 c-11 -10 -8 -93 2 -93 6 0 10 23 9 50 0 52 0 54 -11 43z"/>
<path d="M1290 690 c0 -5 7 -10 16 -10 8 0 12 5 9 10 -3 6 -10 10 -16 10 -5 0
-9 -4 -9 -10z"/>
<path d="M927 583 c-10 -9 -9 -41 2 -47 11 -7 21 28 12 43 -4 6 -10 8 -14 4z"/>
<path d="M205 3690 c-3 -5 -1 -10 4 -10 6 0 11 5 11 10 0 6 -2 10 -4 10 -3 0
-8 -4 -11 -10z"/>
<path d="M100 3680 c0 -5 5 -10 11 -10 5 0 7 5 4 10 -3 6 -8 10 -11 10 -2 0
-4 -4 -4 -10z"/>
<path d="M897 3633 c-3 -5 -1 -17 4 -28 7 -17 8 -17 8 8 1 27 -4 34 -12 20z"/>
<path d="M4184 3465 c-4 -9 -4 -18 -2 -21 8 -7 68 8 68 18 0 5 -4 6 -10 3 -5
-3 -19 -1 -30 5 -16 9 -22 8 -26 -5z"/>
<path d="M1440 3460 c0 -5 9 -10 21 -10 11 0 17 5 14 10 -3 6 -13 10 -21 10
-8 0 -14 -4 -14 -10z"/>
<path d="M3955 3457 c-4 -10 -5 -21 -1 -24 10 -10 18 4 13 24 -4 17 -4 17 -12
0z"/>
<path d="M4477 3464 c-11 -11 3 -24 18 -18 8 4 12 10 9 15 -6 11 -18 12 -27 3z"/>
<path d="M4141 3444 c0 -11 3 -14 6 -6 3 7 2 16 -1 19 -3 4 -6 -2 -5 -13z"/>
<path d="M4591 3444 c0 -11 3 -14 6 -6 3 7 2 16 -1 19 -3 4 -6 -2 -5 -13z"/>
<path d="M4276 3441 c-4 -7 -5 -15 -2 -18 9 -9 19 4 14 18 -4 11 -6 11 -12 0z"/>
<path d="M4080 3428 c0 -4 9 -8 20 -8 11 0 20 4 20 9 0 6 -9 9 -20 8 -11 -1
-20 -5 -20 -9z"/>
<path d="M3627 3403 c-14 -13 -6 -23 18 -21 29 3 35 28 7 28 -10 0 -22 -3 -25
-7z"/>
<path d="M3150 3381 c-13 -26 -13 -31 5 -31 9 0 15 9 15 25 0 30 -6 32 -20 6z"/>
<path d="M4025 3390 c3 -5 8 -10 11 -10 2 0 4 5 4 10 0 6 -5 10 -11 10 -5 0
-7 -4 -4 -10z"/>
<path d="M3360 3359 c0 -5 -4 -7 -10 -4 -5 3 -10 -1 -10 -9 0 -9 -5 -16 -12
-16 -6 0 -9 -3 -6 -6 4 -3 15 -1 26 5 13 7 22 7 30 -1 9 -9 12 -5 12 15 0 17
-5 27 -15 27 -8 0 -15 -5 -15 -11z"/>
<path d="M3238 3353 c7 -3 16 -2 19 1 4 3 -2 6 -13 5 -11 0 -14 -3 -6 -6z"/>
<path d="M3790 3334 c0 -8 5 -12 10 -9 6 3 10 10 10 16 0 5 -4 9 -10 9 -5 0
-10 -7 -10 -16z"/>
</g>
</svg>
